<?xml version="1.0" standalone="no"?>
<!DOCTYPE svg PUBLIC "-//W3C//DTD SVG 20010904//EN"
 "http://www.w3.org/TR/2001/REC-SVG-20010904/DTD/svg10.dtd">
<svg version="1.0" xmlns="http://www.w3.org/2000/svg"
 width="386.000000pt" height="386.000000pt" viewBox="0 0 386.000000 386.000000"
 preserveAspectRatio="xMidYMid meet">

<g transform="translate(0.000000,386.000000) scale(0.100000,-0.100000)"
fill="#000000" stroke="none">
<path d="M0 1930 l0 -1930 1930 0 1930 0 0 1930 0 1930 -1930 0 -1930 0 0
-1930z m2119 226 c21 -12 27 -12 39 0 10 10 18 11 33 4 28 -15 28 -105 -1
-120 -20 -11 -26 -7 -68 45 -21 24 -76 16 -80 -12 -3 -18 4 -24 40 -33 78 -19
108 -38 124 -77 13 -31 14 -41 2 -72 -26 -68 -108 -99 -172 -66 -21 11 -31 12
-36 4 -4 -6 -18 -9 -31 -7 -21 3 -24 9 -27 56 -2 32 2 60 9 68 18 22 51 13 69
-21 30 -54 100 -57 100 -4 0 21 -20 32 -87 49 -127 32 -100 198 32 199 17 0
41 -6 54 -13z m-1379 0 c0 -2 3 -11 6 -19 3 -8 -2 -22 -11 -30 -14 -15 -14
-20 3 -54 l19 -37 18 33 c13 26 15 39 6 57 -21 46 -6 55 83 52 l81 -3 0 -30
c0 -25 -4 -30 -24 -29 -19 1 -33 -14 -72 -75 -28 -43 -49 -88 -49 -103 0 -23
5 -27 33 -30 28 -3 32 -6 32 -33 l0 -30 -110 0 -110 0 0 30 c0 27 4 30 33 33
27 3 32 7 32 30 0 15 -22 61 -49 103 -39 60 -54 76 -72 75 -15 -1 -25 5 -27
17 -8 41 4 47 93 47 47 0 85 -2 85 -4z m1620 -41 c0 -31 3 -35 28 -35 36 0 55
-13 50 -36 -2 -14 -13 -20 -41 -22 l-37 -3 0 -70 c0 -54 3 -69 15 -69 8 0 18
14 23 33 6 22 14 32 28 32 16 0 20 -8 22 -46 4 -59 -21 -84 -85 -84 -66 0 -83
25 -83 125 0 69 -2 78 -20 83 -29 8 -26 45 5 57 19 7 25 17 25 40 0 28 3 30
35 30 33 0 35 -2 35 -35z m-1209 -63 c27 -24 33 -37 37 -87 4 -44 0 -67 -13
-91 -47 -88 -192 -81 -231 11 -18 45 -18 89 2 131 21 45 56 63 121 64 44 0 58
-5 84 -28z m171 13 c4 -5 8 -47 8 -93 0 -67 3 -84 16 -89 25 -9 48 10 56 48
11 49 1 89 -23 89 -13 0 -19 7 -19 24 0 28 14 34 75 32 l40 -1 3 -75 c3 -99 8
-117 33 -123 15 -4 20 -12 17 -29 -3 -20 -9 -23 -55 -26 -42 -2 -53 0 -53 12
0 13 -5 13 -32 -4 -42 -26 -79 -25 -112 1 -24 19 -26 26 -26 101 0 71 -2 80
-20 85 -19 5 -28 41 -14 56 10 9 98 3 106 -8z m326 -13 l3 -23 20 26 c27 34
90 36 113 3 22 -31 20 -54 -6 -72 -24 -17 -58 -6 -58 20 0 9 -6 14 -12 12 -21
-7 -38 -50 -38 -95 0 -38 2 -42 28 -45 21 -2 27 -8 27 -28 0 -25 -1 -25 -90
-25 -89 0 -90 0 -90 25 0 18 6 26 23 28 20 3 22 9 22 68 0 60 -2 65 -25 74
-51 19 -24 59 39 57 35 -2 42 -6 44 -25z m1030 14 c38 -20 57 -60 56 -121 0
-63 -22 -101 -69 -121 -45 -18 -79 -18 -121 2 -45 22 -64 60 -64 130 0 50 3
59 34 90 30 30 40 34 85 34 29 0 64 -6 79 -14z m190 -14 l3 -23 20 26 c15 17
30 25 53 25 61 0 94 -52 56 -90 -25 -25 -41 -22 -55 8 -23 51 -55 7 -55 -74 0
-36 3 -44 19 -44 24 0 43 -23 35 -44 -5 -14 -20 -16 -93 -14 -81 3 -86 4 -89
25 -3 17 3 26 23 33 25 9 26 13 23 72 -3 57 -5 63 -25 66 -17 2 -23 10 -23 27
0 27 11 33 65 31 34 -1 41 -5 43 -24z m312 8 c6 -10 4 -20 -7 -32 -14 -15 -14
-24 -3 -65 7 -27 16 -51 20 -56 3 -4 14 18 24 49 16 50 16 57 2 72 -27 31 -4
49 64 49 47 1 62 -3 70 -16 10 -19 4 -31 -24 -47 -12 -6 -37 -54 -62 -118 -24
-60 -53 -120 -66 -134 -47 -51 -117 -62 -160 -24 -27 23 -23 60 8 74 22 10 28
10 40 -6 7 -11 15 -24 18 -30 3 -7 13 -2 25 12 18 21 19 26 6 60 -34 95 -68
160 -86 165 -24 6 -35 33 -20 51 16 19 139 16 151 -4z"/>
<path d="M1030 2005 c-17 -21 -18 -89 -1 -109 18 -22 58 -20 71 3 15 29 12 87
-6 105 -20 20 -48 20 -64 1z"/>
<path d="M2576 2004 c-18 -18 -21 -76 -6 -105 16 -28 66 -26 76 4 10 32 6 87
-7 103 -15 19 -44 18 -63 -2z"/>
</g>
</svg>
